HIERARCHY
ROOT joint_0
{
	OFFSET 0.000000 0.000000 0.000000
	CHANNELS 6 Xposition Yposition Zposition Zrotation Yrotation Xrotation 
	JOINT joint_1
	{
		OFFSET 13.542969 -4.074463 123.986084
		CHANNELS 3 Zrotation Yrotation Xrotation
		JOINT joint_2
		{
			OFFSET -0.108154 -3.018066 113.860962
			CHANNELS 3 Zrotation Yrotation Xrotation
			JOINT joint_3
			{
				OFFSET -1.139648 -3.876465 113.702026
				CHANNELS 3 Zrotation Yrotation Xrotation
				JOINT joint_4
				{
					OFFSET 13.593506 -8.582153 160.876953
					CHANNELS 3 Zrotation Yrotation Xrotation
					JOINT joint_5
					{
						OFFSET 26.480957 -11.565674 94.427979
						CHANNELS 3 Zrotation Yrotation Xrotation
						End Site
						{
							OFFSET 0.000000 0.000000 0.000000
						}
					}
				}
				JOINT joint_6
				{
					OFFSET 3.003662 -39.658691 88.713989
					CHANNELS 3 Zrotation Yrotation Xrotation
					JOINT joint_7
					{
						OFFSET -25.253906 -162.506348 -28.477051
						CHANNELS 3 Zrotation Yrotation Xrotation
						JOINT joint_8
						{
							OFFSET 23.083252 -8.502686 -295.281982
							CHANNELS 3 Zrotation Yrotation Xrotation
							JOINT joint_9
							{
								OFFSET 20.205566 -32.167908 -263.458008
								CHANNELS 3 Zrotation Yrotation Xrotation
								End Site
								{
									OFFSET 0.000000 0.000000 0.000000
								}
							}
						}
					}
				}
				JOINT joint_10
				{
					OFFSET 12.313232 30.012939 91.642944
					CHANNELS 3 Zrotation Yrotation Xrotation
					JOINT joint_11
					{
						OFFSET 31.960205 162.667969 -19.398926
						CHANNELS 3 Zrotation Yrotation Xrotation
						JOINT joint_12
						{
							OFFSET 51.325195 40.249023 -289.038086
							CHANNELS 3 Zrotation Yrotation Xrotation
							JOINT joint_13
							{
								OFFSET 70.170898 60.433594 -249.556030
								CHANNELS 3 Zrotation Yrotation Xrotation
								End Site
								{
									OFFSET 0.000000 0.000000 0.000000
								}
							}
						}
					}
				}
			}
		}
	}
	JOINT joint_14
	{
		OFFSET -15.093262 -91.803833 -113.326904
		CHANNELS 3 Zrotation Yrotation Xrotation
		JOINT joint_15
		{
			OFFSET 2.288818 -12.306763 -494.206055
			CHANNELS 3 Zrotation Yrotation Xrotation
			JOINT joint_16
			{
				OFFSET -54.691650 0.383423 -424.447006
				CHANNELS 3 Zrotation Yrotation Xrotation
				JOINT joint_17
				{
					OFFSET 202.154297 -21.791382 -80.181999
					CHANNELS 3 Zrotation Yrotation Xrotation
					End Site
					{
						OFFSET 0.000000 0.000000 0.000000
					}
				}
			}
		}
	}
	JOINT joint_18
	{
		OFFSET 10.704102 91.957275 -113.713013
		CHANNELS 3 Zrotation Yrotation Xrotation
		JOINT joint_19
		{
			OFFSET 0.427490 1.374878 -494.359924
			CHANNELS 3 Zrotation Yrotation Xrotation
			JOINT joint_20
			{
				OFFSET -53.071777 2.769531 -424.643028
				CHANNELS 3 Zrotation Yrotation Xrotation
				JOINT joint_21
				{
					OFFSET 200.264648 -28.253052 -82.862999
					CHANNELS 3 Zrotation Yrotation Xrotation
					End Site
					{
						OFFSET 0.000000 0.000000 0.000000
					}
				}
			}
		}
	}
}
MOTION
Frames: 18
Frame Time: 0.016667
-3214.668945 1352.613037 1141.810059 -2.917641 -3.552165 -0.433332 -0.043497 -0.154855 1.789479 -0.055282 0.006370 -0.398334 -0.048995 -0.007652 0.275491 0.637934 1.178210 -1.746983 0.000000 0.000000 0.000000 2.751072 -0.389121 -0.623669 -0.066295 -0.194187 1.293341 -0.182888 1.844758 0.569371 0.000000 0.000000 0.000000 -1.770228 0.711701 -0.536771 0.081513 1.049453 -1.136941 0.334976 0.894215 0.410070 0.000000 0.000000 0.000000 -2.371533 6.688475 5.481325 -2.101561 -7.412380 -0.817349 -2.232455 2.869973 -0.568502 0.000000 0.000000 0.000000 1.802833 -3.363720 5.258830 1.716397 -2.183861 -0.138762 1.585533 6.462531 1.546129 0.000000 0.000000 0.000000 
-3214.663818 1352.521118 1141.782959 -2.875438 -3.546837 -0.404671 -0.036510 -0.170998 1.768504 -0.048069 0.005921 -0.395234 -0.041864 -0.009256 0.273572 0.637286 1.183694 -1.742365 0.000000 0.000000 0.000000 2.802211 -0.382050 -0.607362 -0.067747 -0.199613 1.449427 -0.224189 1.997080 0.275664 0.000000 0.000000 0.000000 -1.754000 0.700568 -0.513885 0.070194 1.052541 -1.202783 0.334282 0.901037 0.401872 0.000000 0.000000 0.000000 -2.381705 6.674794 5.462083 -2.111265 -7.395758 -0.827456 -2.242149 2.866816 -0.572649 0.000000 0.000000 0.000000 1.789661 -3.369174 5.221182 1.703754 -2.199154 -0.123749 1.575349 6.484573 1.545133 0.000000 0.000000 0.000000 
-3214.566650 1352.306396 1141.734985 -2.842951 -3.543718 -0.358885 -0.026119 -0.186045 1.738533 -0.037241 0.011112 -0.387564 -0.031598 -0.014678 0.267587 0.638721 1.182870 -1.747743 0.000000 0.000000 0.000000 2.863080 -0.358477 -0.578916 -0.063077 -0.216831 1.803800 -0.302393 2.260653 -0.322185 0.000000 0.000000 0.000000 -1.735780 0.691034 -0.484917 0.059918 1.057121 -1.262519 0.332816 0.910557 0.388597 0.000000 0.000000 0.000000 -2.387565 6.664463 5.434199 -2.116841 -7.370960 -0.844699 -2.248574 2.854421 -0.576503 0.000000 0.000000 0.000000 1.778788 -3.364043 5.175344 1.693555 -2.215279 -0.113299 1.566941 6.501910 1.544211 0.000000 0.000000 0.000000 
-3214.361328 1352.023682 1141.670044 -2.798610 -3.530650 -0.304015 -0.005824 -0.204810 1.697797 -0.016275 0.019615 -0.374525 -0.011492 -0.022006 0.259218 0.638218 1.168771 -1.752082 0.000000 0.000000 0.000000 2.960280 -0.343444 -0.538714 -0.059839 -0.252543 2.276285 -0.412099 2.647498 -1.133102 0.000000 0.000000 0.000000 -1.722940 0.672225 -0.435030 0.045333 1.060931 -1.343726 0.330407 0.917162 0.374600 0.000000 0.000000 0.000000 -2.396216 6.651201 5.402347 -2.125115 -7.348575 -0.864952 -2.257923 2.836356 -0.582111 0.000000 0.000000 0.000000 1.764060 -3.365982 5.123474 1.679709 -2.229050 -0.106147 1.554592 6.514633 1.541076 0.000000 0.000000 0.000000 
-3213.925293 1351.775635 1141.581055 -2.671406 -3.464069 -0.258847 0.053106 -0.241270 1.637384 0.043717 0.025884 -0.354951 0.047653 -0.029426 0.249502 0.620032 1.108787 -1.714375 0.000000 0.000000 0.000000 3.200084 -0.413959 -0.495545 -0.081660 -0.344242 2.749170 -0.565076 3.299198 -2.063539 0.000000 0.000000 0.000000 -1.743531 0.603377 -0.299547 0.006665 1.057032 -1.548114 0.325768 0.902782 0.371327 0.000000 0.000000 0.000000 -2.428896 6.612446 5.380632 -2.156565 -7.358874 -0.880152 -2.289069 2.813742 -0.596756 0.000000 0.000000 0.000000 1.724914 -3.433631 5.071255 1.641947 -2.227557 -0.102987 1.518655 6.516967 1.527014 0.000000 0.000000 0.000000 
-3213.359863 1351.561646 1141.427002 -2.479319 -3.336844 -0.228590 0.158232 -0.303461 1.558615 0.150211 0.025844 -0.323537 0.153650 -0.029993 0.234534 0.584300 1.006081 -1.633327 0.000000 0.000000 0.000000 3.698926 -0.628477 -0.490667 -0.149023 -0.539532 3.262597 -0.798634 4.409231 -3.215446 0.000000 0.000000 0.000000 -1.826218 0.466577 -0.030250 -0.060024 1.051543 -1.934882 0.333449 0.888016 0.412018 0.000000 0.000000 0.000000 -2.480295 6.527364 5.371772 -2.206469 -7.389767 -0.882393 -2.336239 2.793041 -0.617479 0.000000 0.000000 0.000000 1.669669 -3.582358 5.025416 1.588209 -2.204433 -0.101535 1.466973 6.514827 1.505976 0.000000 0.000000 0.000000 
-3212.564697 1351.382324 1141.249023 -2.205081 -3.156197 -0.207136 0.302510 -0.381403 1.460297 0.296193 0.021842 -0.279212 0.299189 -0.028287 0.212602 0.533648 0.852745 -1.521289 0.000000 0.000000 0.000000 4.337940 -0.942947 -0.481463 -0.268304 -0.794917 3.732965 -1.092172 5.823408 -4.424203 0.000000 0.000000 0.000000 -1.943560 0.279540 0.321200 -0.150635 1.036041 -2.438233 0.337256 0.853595 0.455957 0.000000 0.000000 0.000000 -2.555507 6.416527 5.372973 -2.279355 -7.453098 -0.879583 -2.404979 2.768142 -0.647107 0.000000 0.000000 0.000000 1.590178 -3.796378 4.979027 1.510962 -2.166652 -0.104196 1.392085 6.503663 1.474353 0.000000 0.000000 0.000000 
-3211.121826 1351.332153 1141.166992 -1.726046 -2.900524 -0.195389 0.493083 -0.458640 1.324536 0.489140 0.017084 -0.220520 0.491137 -0.038655 0.188382 0.457202 0.594777 -1.364138 0.000000 0.000000 0.000000 4.875437 -1.271818 -0.378523 -0.432989 -1.011870 3.886218 -1.365133 7.142024 -5.202774 0.000000 0.000000 0.000000 -2.038874 0.054645 0.665428 -0.272515 0.979638 -2.967241 0.289023 0.726532 0.395950 0.000000 0.000000 0.000000 -2.689965 6.319412 5.392759 -2.408077 -7.614966 -0.890131 -2.530009 2.724859 -0.700756 0.000000 0.000000 0.000000 1.442379 -4.087866 4.920446 1.368208 -2.120941 -0.123303 1.252204 6.465757 1.412918 0.000000 0.000000 0.000000 
-3209.022461 1351.374634 1141.249023 -0.986045 -2.542183 -0.205488 0.763618 -0.504359 1.149260 0.762427 0.005939 -0.150024 0.763107 -0.061336 0.159690 0.334264 0.166504 -1.119231 0.000000 0.000000 0.000000 5.251924 -1.610665 -0.153779 -0.626180 -1.171100 3.569256 -1.562124 8.092347 -5.305833 0.000000 0.000000 0.000000 -2.087411 -0.260411 0.974363 -0.437086 0.821358 -3.526793 0.182885 0.515539 0.202523 0.000000 0.000000 0.000000 -2.898269 6.244590 5.458687 -2.605276 -7.946498 -0.920251 -2.725776 2.677157 -0.782464 0.000000 0.000000 0.000000 1.207988 -4.511457 4.861542 1.142939 -2.032656 -0.159134 1.030807 6.388231 1.313145 0.000000 0.000000 0.000000 
-3206.275391 1351.547241 1141.427002 -0.044255 -2.108818 -0.216692 1.078942 -0.540274 0.947153 1.080655 -0.005864 -0.070375 1.079498 -0.094200 0.121264 0.187010 -0.384226 -0.848553 0.000000 0.000000 0.000000 5.544275 -1.942064 0.110198 -0.850833 -1.281287 2.955771 -1.724907 8.884250 -4.955673 0.000000 0.000000 0.000000 -2.101534 -0.613091 1.261946 -0.631430 0.613923 -4.086326 0.018195 0.238106 -0.141786 0.000000 0.000000 0.000000 -3.165070 6.182493 5.544803 -2.857150 -8.375694 -0.967408 -2.976889 2.615255 -0.887264 0.000000 0.000000 0.000000 0.905262 -5.010949 4.788627 0.854025 -1.936979 -0.213636 0.746038 6.290553 1.185068 0.000000 0.000000 0.000000 
-3202.489014 1352.053467 1141.609985 1.053546 -1.662280 -0.181692 1.342613 -0.631434 0.721187 1.348444 0.001852 0.010927 1.343911 -0.149135 0.079795 0.063402 -0.927996 -0.669603 0.000000 0.000000 0.000000 5.718408 -2.156864 0.351940 -1.114547 -1.288783 2.311689 -1.913455 9.827771 -4.403062 0.000000 0.000000 0.000000 -2.079170 -0.838860 1.513386 -0.825564 0.494232 -4.500074 -0.241953 -0.154246 -0.720314 0.000000 0.000000 0.000000 -3.480806 6.146769 5.582581 -3.156923 -8.755685 -1.038473 -3.273491 2.490735 -1.016717 0.000000 0.000000 0.000000 0.543392 -5.431555 4.656575 0.510666 -1.947589 -0.303169 0.405602 6.203514 1.036164 0.000000 0.000000 0.000000 
-3197.340576 1352.790161 1141.796021 2.336855 -1.203929 -0.087331 1.514109 -0.859236 0.459585 1.528256 0.058582 0.084943 1.517005 -0.255930 0.038691 -0.023416 -1.438669 -0.619537 0.000000 0.000000 0.000000 5.726489 -2.226723 0.620714 -1.452155 -1.166717 1.674588 -2.165306 11.167546 -3.522767 0.000000 0.000000 0.000000 -2.024582 -0.851870 1.738437 -1.012784 0.528673 -4.648436 -0.652258 -0.714290 -1.664602 0.000000 0.000000 0.000000 -3.848567 6.174395 5.572924 -3.506924 -9.114629 -1.139933 -3.618759 2.278469 -1.174707 0.000000 0.000000 0.000000 0.103877 -5.719565 4.481067 0.093719 -2.140959 -0.465572 -0.012781 6.143426 0.859627 0.000000 0.000000 0.000000 
-3191.152588 1353.861450 1141.987061 3.775969 -0.737061 0.059149 1.634000 -1.137804 0.169566 1.659861 0.131877 0.151160 1.641142 -0.380549 -0.003259 -0.089500 -1.928182 -0.647723 0.000000 0.000000 0.000000 5.623429 -2.189938 0.929882 -1.850483 -0.935617 0.995260 -2.465029 12.620131 -2.429297 0.000000 0.000000 0.000000 -1.931162 -0.749129 1.926133 -1.203610 0.631114 -4.601519 -1.164526 -1.349072 -2.857086 0.000000 0.000000 0.000000 -4.265898 6.230526 5.519287 -3.905654 -9.422276 -1.262675 -4.010056 2.012417 -1.356541 0.000000 0.000000 0.000000 -0.392250 -5.926594 4.258928 -0.377870 -2.440299 -0.673556 -0.487413 6.106117 0.663398 0.000000 0.000000 0.000000 
-3184.494873 1355.789429 1142.092041 5.244063 -0.324201 0.264224 1.729840 -1.305621 -0.107760 1.765143 0.170587 0.209587 1.742174 -0.455031 -0.040594 -0.130481 -2.305411 -0.719456 0.000000 0.000000 0.000000 5.510293 -2.042985 1.172355 -2.232089 -0.627514 0.448232 -2.788008 13.783039 -1.760976 0.000000 0.000000 0.000000 -1.787744 -0.635035 2.038490 -1.392321 0.720403 -4.513547 -1.657040 -1.910904 -3.983782 0.000000 0.000000 0.000000 -4.718783 6.221775 5.353379 -4.345908 -9.444433 -1.378375 -4.433961 1.727256 -1.553785 0.000000 0.000000 0.000000 -0.878605 -6.059470 3.917693 -0.842386 -2.723867 -0.838892 -0.948219 6.077869 0.473586 0.000000 0.000000 0.000000 
-3177.594727 1358.899902 1142.052002 6.728133 0.006942 0.552266 1.799422 -1.268299 -0.366630 1.836386 0.141772 0.259829 1.814503 -0.438052 -0.067928 -0.148980 -2.558396 -0.809794 0.000000 0.000000 0.000000 5.441632 -1.745500 1.321635 -2.545719 -0.226937 0.200326 -3.130135 14.559275 -1.978198 0.000000 0.000000 0.000000 -1.558418 -0.533754 2.059123 -1.589934 0.774551 -4.432214 -2.122861 -2.426496 -4.991881 0.000000 0.000000 0.000000 -5.212613 6.125636 4.997244 -4.835810 -9.107259 -1.459206 -4.895610 1.458877 -1.764938 0.000000 0.000000 0.000000 -1.339662 -6.096271 3.374436 -1.287753 -2.996254 -0.893554 -1.374856 6.092869 0.303107 0.000000 0.000000 0.000000 
-3170.224854 1362.867065 1141.925049 8.243201 0.273857 0.893506 1.845809 -1.121729 -0.597211 1.879430 0.081777 0.299208 1.861116 -0.376106 -0.086263 -0.147416 -2.700215 -0.910883 0.000000 0.000000 0.000000 5.364221 -1.342387 1.423878 -2.826717 0.246056 0.102981 -3.484017 15.125190 -2.646396 0.000000 0.000000 0.000000 -1.276148 -0.410758 1.987006 -1.786692 0.820169 -4.289497 -2.573775 -2.883381 -5.929323 0.000000 0.000000 0.000000 -5.737905 5.979816 4.517400 -5.366888 -8.488159 -1.514853 -5.391844 1.191999 -1.990079 0.000000 0.000000 0.000000 -1.790365 -6.042133 2.717206 -1.729252 -3.256249 -0.906173 -1.790540 6.119672 0.138096 0.000000 0.000000 0.000000 
-3162.276123 1367.236694 1141.797974 9.705615 0.488816 1.209714 1.906074 -0.990536 -0.757364 1.935987 0.027269 0.329359 1.920780 -0.322467 -0.103938 -0.125763 -2.682205 -0.991521 0.000000 0.000000 0.000000 5.200968 -0.942734 1.429697 -3.087948 0.696774 -0.099354 -3.786021 15.514096 -3.077386 0.000000 0.000000 0.000000 -1.036927 -0.278098 1.829786 -1.933195 0.866127 -4.113856 -2.902230 -3.115620 -6.616077 0.000000 0.000000 0.000000 -6.257670 5.775733 4.053803 -5.905829 -7.580373 -1.569817 -5.896121 0.884501 -2.222896 0.000000 0.000000 0.000000 -2.212235 -5.951094 2.119789 -2.146169 -3.369953 -0.984308 -2.190532 6.035106 -0.037067 0.000000 0.000000 0.000000 
-3153.640625 1371.977417 1141.704956 11.114030 0.656049 1.486653 2.002913 -0.924423 -0.863306 2.031241 -0.010008 0.371073 2.017588 -0.297764 -0.122026 -0.080247 -2.456539 -1.034736 0.000000 0.000000 0.000000 4.854913 -0.558865 1.266402 -3.305178 1.088841 -0.486988 -3.986296 15.680842 -3.065895 0.000000 0.000000 0.000000 -0.891751 -0.137526 1.555218 -2.000043 0.913339 -3.924976 -3.054974 -3.085429 -6.958551 0.000000 0.000000 0.000000 -6.782659 5.555200 3.641488 -6.460202 -6.480667 -1.624657 -6.419135 0.628429 -2.457109 0.000000 0.000000 0.000000 -2.606204 -5.848644 1.610737 -2.536037 -3.274917 -1.153814 -2.577264 5.801850 -0.228698 0.000000 0.000000 0.000000 
